<svg width="300" height="200" viewBox="0 0 300 200" xmlns="http://www.w3.org/2000/svg">
  <defs>
    <linearGradient id="croissant" x1="0%" y1="0%" x2="100%" y2="100%">
      <stop offset="0%" style="stop-color:#d4af7a;stop-opacity:1" />
      <stop offset="100%" style="stop-color:#c9a876;stop-opacity:1" />
    </linearGradient>
  </defs>
  
  <rect width="300" height="200" fill="#fefcf8"/>
  
  <!-- Plate -->
  <ellipse cx="150" cy="160" rx="120" ry="25" fill="#f8f3e9"/>
  <ellipse cx="150" cy="158" rx="115" ry="22" fill="#ffffff"/>
  
  <!-- Croissant -->
  <path d="M80 120 Q120 100 160 110 Q200 120 220 140 Q210 150 180 145 Q150 140 120 150 Q100 145 80 120" fill="url(#croissant)"/>
  
  <!-- Croissant layers -->
  <path d="M85 125 Q115 110 145 115 Q175 120 195 135" stroke="#c9a876" stroke-width="2" fill="none"/>
  <path d="M90 130 Q120 115 150 120 Q180 125 200 140" stroke="#c9a876" stroke-width="2" fill="none"/>
  
  <!-- Texture lines -->
  <path d="M95 135 L105 130" stroke="#6b4e37" stroke-width="1"/>
  <path d="M110 132 L120 127" stroke="#6b4e37" stroke-width="1"/>
  <path d="M125 129 L135 124" stroke="#6b4e37" stroke-width="1"/>
  <path d="M140 126 L150 121" stroke="#6b4e37" stroke-width="1"/>
  <path d="M155 123 L165 118" stroke="#6b4e37" stroke-width="1"/>
  <path d="M170 120 L180 115" stroke="#6b4e37" stroke-width="1"/>
  
  <!-- Crumbs -->
  <circle cx="90" cy="170" r="2" fill="#c9a876"/>
  <circle cx="210" cy="165" r="1.5" fill="#c9a876"/>
  <circle cx="180" cy="175" r="1" fill="#c9a876"/>
  <circle cx="120" cy="175" r="1.5" fill="#c9a876"/>
  
  <!-- Butter pat -->
  <ellipse cx="160" cy="130" rx="8" ry="4" fill="#f0ead6"/>
</svg>