<svg width="300" height="200" viewBox="0 0 300 200" xmlns="http://www.w3.org/2000/svg">
  <defs>
    <linearGradient id="mochaCup" x1="0%" y1="0%" x2="100%" y2="100%">
      <stop offset="0%" style="stop-color:#d4af7a;stop-opacity:1" />
      <stop offset="100%" style="stop-color:#6b4e37;stop-opacity:1" />
    </linearGradient>
    <linearGradient id="chocolate" x1="0%" y1="0%" x2="100%" y2="100%">
      <stop offset="0%" style="stop-color:#3d2914;stop-opacity:1" />
      <stop offset="100%" style="stop-color:#1a0e0a;stop-opacity:1" />
    </linearGradient>
  </defs>
  
  <rect width="300" height="200" fill="#fefcf8"/>
  
  <!-- Saucer -->
  <ellipse cx="150" cy="175" rx="85" ry="18" fill="#6b4e37"/>
  <ellipse cx="150" cy="173" rx="80" ry="15" fill="#f8f3e9"/>
  
  <!-- Cup -->
  <path d="M95 110 L205 110 L195 160 L105 160 Z" fill="url(#mochaCup)"/>
  
  <!-- Coffee with chocolate -->
  <ellipse cx="150" cy="120" rx="50" ry="8" fill="url(#chocolate)"/>
  
  <!-- Whipped cream -->
  <ellipse cx="150" cy="115" rx="45" ry="12" fill="#fefcf8"/>
  <circle cx="140" cy="110" r="8" fill="#f8f3e9"/>
  <circle cx="160" cy="108" r="6" fill="#f8f3e9"/>
  <circle cx="150" cy="105" r="10" fill="#fefcf8"/>
  
  <!-- Chocolate drizzle -->
  <path d="M130 115 Q140 120 150 115 Q160 110 170 115" stroke="#3d2914" stroke-width="2" fill="none"/>
  <path d="M135 120 Q145 125 155 120 Q165 115 175 120" stroke="#3d2914" stroke-width="2" fill="none"/>
  
  <!-- Handle -->
  <path d="M205 125 Q230 135 230 155 Q230 175 205 165" fill="none" stroke="#6b4e37" stroke-width="5"/>
  
  <!-- Chocolate pieces -->
  <rect x="80" y="60" width="12" height="8" fill="#3d2914" transform="rotate(-15 86 64)"/>
  <rect x="220" y="50" width="10" height="6" fill="#3d2914" transform="rotate(25 225 53)"/>
  <rect x="70" y="140" width="8" height="6" fill="#3d2914" transform="rotate(-30 74 143)"/>
</svg>